PathFileType	4	(X/Y/Z)	pose_F01_0-96.trc
DataRate	CameraRate	NumFrames	NumMarkers	Units	OrigDataRate	OrigDataStartFrame	OrigNumFrames
30	30	5	21	m	30	60	96
Frame#	Time	CHip			RHip			RKnee			RAnkle			RBigToe			RSmallToe			RHeel			LHip			LKnee			LAnkle			LBigToe			LSmallToe			LHeel			Neck			Nose			RShoulder			RElbow			RWrist			LShoulder			LElbow			LWrist			
		X1	Y1	Z1	X2	Y2	Z2	X3	Y3	Z3	X4	Y4	Z4	X5	Y5	Z5	X6	Y6	Z6	X7	Y7	Z7	X8	Y8	Z8	X9	Y9	Z9	X10	Y10	Z10	X11	Y11	Z11	X12	Y12	Z12	X13	Y13	Z13	X14	Y14	Z14	X15	Y15	Z15	X16	Y16	Z16	X17	Y17	Z17	X18	Y18	Z18	X19	Y19	Z19	X20	Y20	Z20	X21	Y21	Z21	
60	2.0	-0.15185152412491643	1.8170362018120618	-0.3743678926339945	-0.16582774516383922	1.8189628512438294	-0.32534990181335205	-0.1809507637763188	1.700438211478831	-0.35322618145696516	-0.14240411222594151	1.5871924003384812	-0.433617844253112	-0.17297878512175344	1.5622579275048636	-0.47427191198965857	-0.17227776644034837	1.5696914055198776	-0.47604061199547215	-0.13391273273247523	1.5770612449832597	-0.4377015921112713	-0.13813524308258987	1.8131246405067658	-0.4265008961863994	-0.15525538980891224	1.7083486397159882	-0.4382620936506813	-0.129735530041768	1.6026211266317985	-0.46272237870068045	-0.15980504430760506	1.5728026022338368	-0.4598600206632955	-0.1452494096502008	1.5727322582041903	-0.45652982506491024	-0.12570967320932794	1.5886573728527313	-0.4427379761041027	-0.13363558195574846	1.9522766573666406	-0.47648854949096153	-0.14440139185222298	2.0091518878830934	-0.5578630103692275	-0.1604076121272658	1.9677539473279386	-0.4178572603632556	-0.185650741629426	1.91196741991784	-0.3180200961367677	-0.24057014647039285	1.8763105767758965	-0.3299117000442033	-0.1065704833883502	1.941810626950471	-0.5318420506291542	-0.11013568638156732	1.869309195628987	-0.5384374783868454	-0.13378070088770358	1.911768938139806	-0.5566681479720217
61	2.033333333333333	-0.1480405050464705	1.815951482681392	-0.3602687113555195	-0.1616754023946994	1.8180218294757378	-0.3114555901394258	-0.18138353017319384	1.700264047631321	-0.3418054294418612	-0.14240411222594151	1.5871924003384812	-0.433617844253112	-0.17297878512175344	1.5622579275048636	-0.47427191198965857	-0.17227776644034837	1.5696914055198776	-0.47604061199547215	-0.13391273273247523	1.5770612449832597	-0.4377015921112713	-0.13368119745556525	1.8130944259422324	-0.40929128753838645	-0.15414875048288762	1.7051687916602918	-0.434229223966376	-0.129735530041768	1.6026211266317985	-0.46272237870068045	-0.1589614446613136	1.5724249900455478	-0.4577079289329728	-0.14604400101085285	1.5719713508263022	-0.4599010908798648	-0.12570967320932794	1.5886573728527313	-0.4427379761041027	-0.1356745573611317	1.9521279748243867	-0.47408326957581437	-0.14855368659844953	2.0026118696950914	-0.552268252747372	-0.16333293600847792	1.9665495868638352	-0.4184158299836197	-0.18405171333562007	1.9082575682290877	-0.3196243782634707	-0.24044495170243058	1.8715339170656544	-0.34364971875117684	-0.10585582224228374	1.9416417376984394	-0.528491856309196	-0.10855874494424393	1.8708461858002499	-0.5320056566834293	-0.13018224069143508	1.908847404943865	-0.5607415473176485
62	2.066666666666667	-0.14634357003173612	1.8176731922333595	-0.35371072811405063	-0.16088745269656127	1.8194762721646234	-0.29926554094386837	-0.18327778299546812	1.7028210371122119	-0.3399395596957737	-0.14240411222594151	1.5871924003384812	-0.433617844253112	-0.17297878512175344	1.5622579275048636	-0.47427191198965857	-0.17227776644034837	1.5696914055198776	-0.47604061199547215	-0.13391273273247523	1.5770612449832597	-0.4377015921112713	-0.13486181787606213	1.8153291065687205	-0.40386989431537823	-0.15368478333355937	1.7112841405316985	-0.43109988286583273	-0.129735530041768	1.6026211266317985	-0.46272237870068045	-0.15811784501502213	1.5720473778572588	-0.45555583720265	-0.14593290327719674	1.5738527620176952	-0.46060101890887234	-0.12570967320932794	1.5886573728527313	-0.4427379761041027	-0.13690078563585076	1.9516336834465575	-0.45970127810091416	-0.15056344145977704	1.9996274091952486	-0.548944875149871	-0.16516683978303148	1.9648337086021928	-0.40685992366827023	-0.18484493951965136	1.9055930471410714	-0.322122940937136	-0.23948634182364692	1.8574928799791581	-0.35595136871594046	-0.10897284184531723	1.9438642423704429	-0.5208467417757038	-0.10486081607101508	1.8715989118956025	-0.5190658615221045	-0.13644828580134077	1.9034512302186446	-0.5436796392290925
63	2.1	-0.14614080666432164	1.8186905922860288	-0.35375176566298	-0.1603025589216348	1.819089233790248	-0.2992301574119029	-0.18327778299546812	1.7028210371122119	-0.3399395596957737	-0.14240411222594151	1.5871924003384812	-0.433617844253112	-0.17297878512175344	1.5622579275048636	-0.47427191198965857	-0.17227776644034837	1.5696914055198776	-0.47604061199547215	-0.13391273273247523	1.5770612449832597	-0.4377015921112713	-0.13377277358238931	1.8190648632220277	-0.40109491942739905	-0.1518278447766562	1.7144269055149277	-0.4245178790850521	-0.129735530041768	1.6026211266317985	-0.46272237870068045	-0.1572742453687307	1.5716697656689695	-0.45340374547232726	-0.14482549100980868	1.5756523251534396	-0.457719246520023	-0.12570967320932794	1.5886573728527313	-0.4427379761041027	-0.1405663767249846	1.9552572814452305	-0.45538059637926565	-0.1565971572057276	2.00243630401817	-0.5422327010553587	-0.1652333841732352	1.9657322217073696	-0.39829880355901226	-0.18656071701912263	1.9041230939245035	-0.3196151325492839	-0.23116600200155873	1.855083295588166	-0.3465067332382168	-0.11128567597682185	1.949666430367437	-0.5108035843575136	-0.10191694214748812	1.8741733037946144	-0.509247511685753	-0.13746679704460363	1.8970351297323136	-0.5279697663370677
64	2.1333333333333333	-0.14795905152400862	1.8207087225267204	-0.35190974909375405	-0.16216341374402785	1.8189857147673125	-0.2970148987447962	-0.18327778299546812	1.7028210371122119	-0.3399395596957737	-0.14240411222594151	1.5871924003384812	-0.433617844253112	-0.17297878512175344	1.5622579275048636	-0.47427191198965857	-0.17227776644034837	1.5696914055198776	-0.47604061199547215	-0.13391273273247523	1.5770612449832597	-0.4377015921112713	-0.1357893198590527	1.8202678299555302	-0.39888099077099665	-0.14692114039343732	1.7073038883417966	-0.41099259417746214	-0.129735530041768	1.6026211266317985	-0.46272237870068045	-0.15643064572243925	1.5712921534806803	-0.45125165374200454	-0.14426095626841834	1.576845961570604	-0.45614246640532824	-0.12570967320932794	1.5886573728527313	-0.4427379761041027	-0.14182836185584627	1.9612730327980354	-0.45141170463112573	-0.15716139463641635	2.007275537941673	-0.5262202283937649	-0.16615158928001628	1.9682463763472104	-0.39314474547586453	-0.1873047727954488	1.9041634922745767	-0.3139244214397285	-0.22889567708625566	1.853094465316674	-0.33054783096704643	-0.11256615457085571	1.9516339553129214	-0.4966170675539543	-0.1007560252301139	1.8796229855347428	-0.5065146242637395	-0.1460534058534482	1.8926379444227555	-0.5269787462266384
